<svg xmlns="http://www.w3.org/2000/svg" viewBox="0 0 64 64" fill="none" aria-hidden="true">
  <defs>
    <linearGradient id="pan" x1="8" y1="44" x2="56" y2="20" gradientUnits="userSpaceOnUse">
      <stop stop-color="#E8531C"/>
      <stop offset="1" stop-color="#8B2C0A"/>
    </linearGradient>
    <linearGradient id="shine" x1="22" y1="18" x2="46" y2="36" gradientUnits="userSpaceOnUse">
      <stop stop-color="#fff" stop-opacity=".35"/>
      <stop offset="1" stop-color="#fff" stop-opacity="0"/>
    </linearGradient>
  </defs>
  <ellipse cx="32" cy="38" rx="26" ry="10" fill="url(#pan)" stroke="#5C1A06" stroke-width="1.5"/>
  <ellipse cx="32" cy="34" rx="20" ry="7" fill="#2A1810" opacity=".25"/>
  <path d="M12 38 Q32 28 52 38" stroke="url(#shine)" stroke-width="2" stroke-linecap="round" fill="none"/>
  <path d="M54 36h8c1.5 0 2.5 1.2 2 2.6l-2 6c-.4 1.2-1.6 2-2.9 2H52" stroke="#5C1A06" stroke-width="2" fill="none" stroke-linecap="round"/>
  <path d="M28 12c2-4 6-6 10-4 3 1.5 4.5 5 3.5 8.5" stroke="#C4A574" stroke-width="2" stroke-linecap="round" fill="none" opacity=".9"/>
  <path d="M34 10c3-2 7-1 9 2" stroke="#E8D4B8" stroke-width="1.5" stroke-linecap="round" fill="none" opacity=".7"/>
  <circle cx="26" cy="16" r="2" fill="#FFD54F" opacity=".85"/>
  <circle cx="38" cy="14" r="1.5" fill="#FFAB40" opacity=".9"/>
</svg>
